# xmcd CD database file
#
# Track frame offsets:
#	150
#	39140
#	57913
#	88785
#	128087
#	179832
#	217089
#	238055
#
# Disc length: 3919 seconds
#
# Revision: 0
# Processed by: cddbd v1.4PL0 Copyright (c) Steve Scherf et al.
# Submitted via: CDex 1.50Beta3
#
DISCID=710f4d08
DTITLE=Jiri Stivin - Live at AghaRTA Jazz Club
DYEAR=1997
DGENRE=Jazz
TTITLE0=Softly As In The Morning Sunrise
TTITLE1=Balada o ocich pani Topicove
TTITLE2=Ezop a brabenec
TTITLE3=Strejcek hlad
TTITLE4=Autumn Leaves
TTITLE5=Dve ryby v cizim meste
TTITLE6=The Fine Crystal
TTITLE7=Big Blit, ci ne big blit
EXTD=YEAR: 1997
EXTT0=
EXTT1=
EXTT2=
EXTT3=
EXTT4=
EXTT5=
EXTT6=
EXTT7=
PLAYORDER=
